# xmcd
#
# Track frame offsets: 
#        150
#        19741
#        39403
#        60226
#        79646
#        98348
#        133451
#        154297
#        172630
#        193206
#        207929
#        225341
#        239477
#
# Disc length: 3404 seconds
#
# Revision: 0
# Processed by: cddbd v1.5.2PL0 Copyright (c) Steve Scherf et al.
# Submitted via: ExactAudioCopy v0.99pb5
#
DISCID=9b0d4a0d
DTITLE=Thalía - Primera Fila
DYEAR=2009
DGENRE=Ballad
TTITLE0=Cosiéndome El Corazón
TTITLE1=Enséñame A Vivir
TTITLE2=Qué Será De Ti
TTITLE3=Cómo
TTITLE4=El Próximo Viernes
TTITLE5=Medley (Entre el mar y una estrella, Piel morena, No me enseña
TTITLE5=ste, Amor a la mexicana)
TTITLE6=Estoy Enamorado (Dueto con Pedro Capó)
TTITLE7=Equivocada
TTITLE8=Brindis
TTITLE9=Con La Duda (Dueto con Joan Sebastian)
TTITLE10=Cuando Te Beso
TTITLE11=Ya Lo Sabía
TTITLE12=Mujeres
EXTD=
EXTT0=
EXTT1=
EXTT2=
EXTT3=
EXTT4=
EXTT5=
EXTT6=
EXTT7=
EXTT8=
EXTT9=
EXTT10=
EXTT11=
EXTT12=
PLAYORDER=
